<mxfile host="app.diagrams.net" modified="2022-01-25T04:16:38.000Z" agent="5.0 (Windows)" etag="5CcGjuOzcjS6StseFjUK" version="16.4.5" type="github">
  <diagram id="rxQ1Elv-ItG-_THpZZtT" name="第 1 页">
    <mxGraphModel dx="1483" dy="766" grid="0" gridSize="10" guides="1" tooltips="1" connect="1" arrows="1" fold="1" page="1" pageScale="1" pageWidth="1169" pageHeight="1654" math="0" shadow="0">
      <root>
        <mxCell id="0" />
        <mxCell id="1" parent="0" />
        <mxCell id="jHMa6xc9n_6trjZNkkyf-11" value="&amp;nbsp;&lt;b&gt;预约原子服务&lt;/b&gt;" style="rounded=1;whiteSpace=wrap;html=1;fontSize=12;fontColor=#2E2E2E;fillColor=#FFFFFF;dashed=1;align=left;verticalAlign=top;" vertex="1" parent="1">
          <mxGeometry x="524" y="484" width="130" height="94" as="geometry" />
        </mxCell>
        <mxCell id="jHMa6xc9n_6trjZNkkyf-2" value="&lt;b&gt;&lt;font style=&quot;font-size: 13px&quot;&gt;&lt;font style=&quot;font-size: 13px&quot;&gt;&amp;nbsp;&amp;nbsp; 厂端基础参数&lt;/font&gt;&lt;/font&gt;&lt;font style=&quot;font-size: 13px&quot;&gt;原子服务&lt;/font&gt;&lt;/b&gt;" style="rounded=1;whiteSpace=wrap;html=1;fontSize=12;fontColor=#2E2E2E;fillColor=#FFFFFF;dashed=1;align=left;verticalAlign=top;" vertex="1" parent="1">
          <mxGeometry x="270" y="641" width="326" height="184" as="geometry" />
        </mxCell>
        <mxCell id="i3OPoqDQxN0986Pk2l1O-22" value="&lt;div style=&quot;font-size: 14px&quot; align=&quot;left&quot;&gt;&lt;font style=&quot;font-size: 14px&quot;&gt;&lt;b&gt;&lt;font style=&quot;font-size: 14px&quot; color=&quot;#2E2E2E&quot;&gt;&amp;nbsp;售后服务聚合服务&lt;/font&gt;&lt;/b&gt;&lt;/font&gt;&lt;/div&gt;" style="rounded=1;whiteSpace=wrap;html=1;fontSize=18;fontColor=#FFFFFF;fillColor=#FFFFFF;dashed=1;align=left;horizontal=1;verticalAlign=top;" parent="1" vertex="1">
          <mxGeometry x="270" y="243" width="660" height="196" as="geometry" />
        </mxCell>
        <mxCell id="i3OPoqDQxN0986Pk2l1O-4" style="edgeStyle=orthogonalEdgeStyle;rounded=0;orthogonalLoop=1;jettySize=auto;html=1;exitX=0.5;exitY=0;exitDx=0;exitDy=0;fontSize=18;fontColor=#FFFFFF;startArrow=none;" parent="1" source="i3OPoqDQxN0986Pk2l1O-2" edge="1">
          <mxGeometry relative="1" as="geometry">
            <mxPoint x="173" y="73" as="targetPoint" />
          </mxGeometry>
        </mxCell>
        <mxCell id="i3OPoqDQxN0986Pk2l1O-6" value="" style="group" parent="1" vertex="1" connectable="0">
          <mxGeometry x="58" y="47" width="125" height="50" as="geometry" />
        </mxCell>
        <mxCell id="i3OPoqDQxN0986Pk2l1O-1" value="&lt;div style=&quot;font-size: 16px&quot; align=&quot;left&quot;&gt;&lt;font style=&quot;font-size: 16px&quot; color=&quot;#FFFFFF&quot;&gt;&amp;nbsp;&amp;nbsp;&amp;nbsp;&amp;nbsp; 客户端&lt;/font&gt;&lt;/div&gt;" style="shape=loopLimit;whiteSpace=wrap;html=1;rotation=0;direction=south;fillColor=#FF9933;align=left;" parent="i3OPoqDQxN0986Pk2l1O-6" vertex="1">
          <mxGeometry width="125" height="50" as="geometry" />
        </mxCell>
        <mxCell id="i3OPoqDQxN0986Pk2l1O-2" value="" style="ellipse;whiteSpace=wrap;html=1;aspect=fixed;" parent="i3OPoqDQxN0986Pk2l1O-6" vertex="1">
          <mxGeometry x="106" y="19" width="12" height="12" as="geometry" />
        </mxCell>
        <mxCell id="i3OPoqDQxN0986Pk2l1O-7" value="" style="group" parent="1" vertex="1" connectable="0">
          <mxGeometry x="60" y="148" width="125" height="50" as="geometry" />
        </mxCell>
        <mxCell id="i3OPoqDQxN0986Pk2l1O-8" value="&lt;div style=&quot;font-size: 16px&quot; align=&quot;left&quot;&gt;&lt;font style=&quot;font-size: 16px&quot; color=&quot;#FFFFFF&quot;&gt;&amp;nbsp;&amp;nbsp;&amp;nbsp;&amp;nbsp; 接口层&lt;br&gt;&lt;/font&gt;&lt;/div&gt;" style="shape=loopLimit;whiteSpace=wrap;html=1;rotation=0;direction=south;fillColor=#FF9933;align=left;" parent="i3OPoqDQxN0986Pk2l1O-7" vertex="1">
          <mxGeometry width="125" height="50" as="geometry" />
        </mxCell>
        <mxCell id="i3OPoqDQxN0986Pk2l1O-9" value="" style="ellipse;whiteSpace=wrap;html=1;aspect=fixed;" parent="i3OPoqDQxN0986Pk2l1O-7" vertex="1">
          <mxGeometry x="106" y="19" width="12" height="12" as="geometry" />
        </mxCell>
        <mxCell id="i3OPoqDQxN0986Pk2l1O-10" value="" style="group" parent="1" vertex="1" connectable="0">
          <mxGeometry x="62" y="289" width="125" height="50" as="geometry" />
        </mxCell>
        <mxCell id="i3OPoqDQxN0986Pk2l1O-11" value="&lt;div style=&quot;font-size: 16px&quot; align=&quot;left&quot;&gt;&lt;font style=&quot;font-size: 16px&quot; color=&quot;#FFFFFF&quot;&gt;&amp;nbsp;&amp;nbsp;&amp;nbsp;&amp;nbsp; 应用层&lt;br&gt;&lt;/font&gt;&lt;/div&gt;" style="shape=loopLimit;whiteSpace=wrap;html=1;rotation=0;direction=south;fillColor=#FF9933;align=left;" parent="i3OPoqDQxN0986Pk2l1O-10" vertex="1">
          <mxGeometry width="125" height="50" as="geometry" />
        </mxCell>
        <mxCell id="i3OPoqDQxN0986Pk2l1O-12" value="" style="ellipse;whiteSpace=wrap;html=1;aspect=fixed;" parent="i3OPoqDQxN0986Pk2l1O-10" vertex="1">
          <mxGeometry x="106" y="19" width="12" height="12" as="geometry" />
        </mxCell>
        <mxCell id="i3OPoqDQxN0986Pk2l1O-14" value="" style="group" parent="1" vertex="1" connectable="0">
          <mxGeometry x="67" y="619" width="125" height="50" as="geometry" />
        </mxCell>
        <mxCell id="i3OPoqDQxN0986Pk2l1O-15" value="&lt;div style=&quot;font-size: 16px&quot; align=&quot;left&quot;&gt;&lt;font style=&quot;font-size: 16px&quot; color=&quot;#FFFFFF&quot;&gt;&amp;nbsp;&amp;nbsp;&amp;nbsp;&amp;nbsp; 领域层&lt;br&gt;&lt;/font&gt;&lt;/div&gt;" style="shape=loopLimit;whiteSpace=wrap;html=1;rotation=0;direction=south;fillColor=#FF9933;align=left;" parent="i3OPoqDQxN0986Pk2l1O-14" vertex="1">
          <mxGeometry width="125" height="50" as="geometry" />
        </mxCell>
        <mxCell id="i3OPoqDQxN0986Pk2l1O-16" value="" style="ellipse;whiteSpace=wrap;html=1;aspect=fixed;" parent="i3OPoqDQxN0986Pk2l1O-14" vertex="1">
          <mxGeometry x="106" y="19" width="12" height="12" as="geometry" />
        </mxCell>
        <mxCell id="i3OPoqDQxN0986Pk2l1O-45" style="edgeStyle=orthogonalEdgeStyle;rounded=0;orthogonalLoop=1;jettySize=auto;html=1;exitX=0.5;exitY=1;exitDx=0;exitDy=0;fontSize=12;fontColor=#2E2E2E;" parent="1" source="i3OPoqDQxN0986Pk2l1O-17" target="i3OPoqDQxN0986Pk2l1O-21" edge="1">
          <mxGeometry relative="1" as="geometry" />
        </mxCell>
        <mxCell id="i3OPoqDQxN0986Pk2l1O-17" value="&lt;font style=&quot;font-size: 12px;&quot;&gt;DMS-PC&lt;/font&gt;" style="rounded=0;whiteSpace=wrap;html=1;fontSize=12;fontColor=#FFFFFF;fillColor=#FF9999;" parent="1" vertex="1">
          <mxGeometry x="285" y="47" width="110" height="50" as="geometry" />
        </mxCell>
        <mxCell id="i3OPoqDQxN0986Pk2l1O-21" value="&lt;div style=&quot;font-size: 12px&quot;&gt;&lt;font style=&quot;font-size: 12px&quot;&gt;DMS-PC&lt;/font&gt;&lt;/div&gt;&lt;div style=&quot;font-size: 12px&quot;&gt;&lt;font style=&quot;font-size: 12px&quot;&gt;BFF服务&lt;/font&gt;&lt;/div&gt;" style="rounded=0;whiteSpace=wrap;html=1;fontSize=12;fontColor=#FFFFFF;fillColor=#66B2FF;" parent="1" vertex="1">
          <mxGeometry x="285" y="150" width="110" height="50" as="geometry" />
        </mxCell>
        <mxCell id="i3OPoqDQxN0986Pk2l1O-46" style="edgeStyle=orthogonalEdgeStyle;rounded=0;orthogonalLoop=1;jettySize=auto;html=1;exitX=0.5;exitY=1;exitDx=0;exitDy=0;fontSize=12;fontColor=#2E2E2E;" parent="1" edge="1">
          <mxGeometry relative="1" as="geometry">
            <mxPoint x="485" y="97" as="sourcePoint" />
          </mxGeometry>
        </mxCell>
        <mxCell id="i3OPoqDQxN0986Pk2l1O-52" style="edgeStyle=orthogonalEdgeStyle;rounded=0;orthogonalLoop=1;jettySize=auto;html=1;exitX=0.5;exitY=1;exitDx=0;exitDy=0;entryX=0.5;entryY=0;entryDx=0;entryDy=0;fontSize=12;fontColor=#2E2E2E;" parent="1" source="i3OPoqDQxN0986Pk2l1O-30" target="i3OPoqDQxN0986Pk2l1O-32" edge="1">
          <mxGeometry relative="1" as="geometry" />
        </mxCell>
        <mxCell id="i3OPoqDQxN0986Pk2l1O-30" value="&lt;font style=&quot;font-size: 12px;&quot;&gt;外部系统&lt;/font&gt;" style="rounded=0;whiteSpace=wrap;html=1;fontSize=12;fontColor=#FFFFFF;fillColor=#FF9999;" parent="1" vertex="1">
          <mxGeometry x="806.83" y="47" width="110" height="50" as="geometry" />
        </mxCell>
        <mxCell id="i3OPoqDQxN0986Pk2l1O-32" value="&lt;div style=&quot;font-size: 12px&quot;&gt;&lt;font style=&quot;font-size: 12px&quot;&gt;DMS-OpenApi&lt;/font&gt;&lt;/div&gt;&lt;div style=&quot;font-size: 12px&quot;&gt;&lt;font style=&quot;font-size: 12px&quot;&gt;BFF服务&lt;/font&gt;&lt;/div&gt;" style="rounded=0;whiteSpace=wrap;html=1;fontSize=12;fontColor=#FFFFFF;fillColor=#66B2FF;" parent="1" vertex="1">
          <mxGeometry x="806.83" y="148" width="110" height="50" as="geometry" />
        </mxCell>
        <mxCell id="i3OPoqDQxN0986Pk2l1O-33" value="&lt;div style=&quot;font-size: 14px&quot; align=&quot;left&quot;&gt;&lt;font style=&quot;font-size: 14px&quot;&gt;&lt;b&gt;&lt;font style=&quot;font-size: 14px&quot; color=&quot;#2E2E2E&quot;&gt;&amp;nbsp;&lt;/font&gt;&lt;/b&gt;&lt;/font&gt;&lt;font style=&quot;font-size: 14px&quot;&gt;&lt;b&gt;&lt;font style=&quot;font-size: 14px&quot; color=&quot;#2E2E2E&quot;&gt;&lt;font style=&quot;font-size: 14px&quot;&gt;&lt;b&gt;&lt;font style=&quot;font-size: 14px&quot; color=&quot;#2E2E2E&quot;&gt;售后服务&lt;/font&gt;&lt;/b&gt;&lt;/font&gt;定时任务&lt;/font&gt;&lt;/b&gt;&lt;/font&gt;&lt;/div&gt;" style="rounded=1;whiteSpace=wrap;html=1;fontSize=18;fontColor=#FFFFFF;fillColor=#FFFFFF;dashed=1;align=left;horizontal=1;verticalAlign=top;" parent="1" vertex="1">
          <mxGeometry x="954" y="241" width="175" height="130" as="geometry" />
        </mxCell>
        <mxCell id="i3OPoqDQxN0986Pk2l1O-34" value="&lt;font style=&quot;font-size: 12px&quot;&gt;schedule&lt;/font&gt;" style="rounded=0;whiteSpace=wrap;html=1;fontSize=16;fontColor=#2E2E2E;fillColor=#FFCC99;" parent="1" vertex="1">
          <mxGeometry x="986" y="286" width="110" height="50" as="geometry" />
        </mxCell>
        <mxCell id="i3OPoqDQxN0986Pk2l1O-56" value="" style="endArrow=classic;html=1;rounded=0;fontSize=12;fontColor=#2E2E2E;exitX=0.5;exitY=1;exitDx=0;exitDy=0;entryX=0.5;entryY=0;entryDx=0;entryDy=0;" parent="1" source="i3OPoqDQxN0986Pk2l1O-21" target="i3OPoqDQxN0986Pk2l1O-22" edge="1">
          <mxGeometry width="50" height="50" relative="1" as="geometry">
            <mxPoint x="429" y="301" as="sourcePoint" />
            <mxPoint x="479" y="251" as="targetPoint" />
          </mxGeometry>
        </mxCell>
        <mxCell id="i3OPoqDQxN0986Pk2l1O-59" value="" style="endArrow=classic;html=1;rounded=0;fontSize=12;fontColor=#2E2E2E;exitX=0.5;exitY=1;exitDx=0;exitDy=0;entryX=0.488;entryY=0;entryDx=0;entryDy=0;entryPerimeter=0;" parent="1" source="i3OPoqDQxN0986Pk2l1O-32" edge="1">
          <mxGeometry width="50" height="50" relative="1" as="geometry">
            <mxPoint x="437" y="301" as="sourcePoint" />
            <mxPoint x="600.0799999999999" y="243" as="targetPoint" />
          </mxGeometry>
        </mxCell>
        <mxCell id="i3OPoqDQxN0986Pk2l1O-62" value="&lt;b&gt;&lt;font style=&quot;font-size: 13px&quot;&gt;&lt;font style=&quot;font-size: 13px&quot;&gt;&amp;nbsp;&amp;nbsp; 店端基础参数&lt;/font&gt;&lt;/font&gt;&lt;font style=&quot;font-size: 13px&quot;&gt;原子服务&lt;/font&gt;&lt;/b&gt;" style="rounded=1;whiteSpace=wrap;html=1;fontSize=12;fontColor=#2E2E2E;fillColor=#FFFFFF;dashed=1;align=left;verticalAlign=top;" parent="1" vertex="1">
          <mxGeometry x="662" y="641" width="349" height="184" as="geometry" />
        </mxCell>
        <mxCell id="i3OPoqDQxN0986Pk2l1O-63" value="&lt;div&gt;主动点检&lt;/div&gt;&lt;div&gt;提醒项&lt;/div&gt;" style="rounded=0;whiteSpace=wrap;html=1;fontSize=12;fontColor=#2E2E2E;fillColor=#97D077;" parent="1" vertex="1">
          <mxGeometry x="289" y="729" width="80" height="35" as="geometry" />
        </mxCell>
        <mxCell id="i3OPoqDQxN0986Pk2l1O-64" value="作业组" style="rounded=0;whiteSpace=wrap;html=1;fontSize=12;fontColor=#2E2E2E;fillColor=#97D077;" parent="1" vertex="1">
          <mxGeometry x="798" y="732" width="80" height="35" as="geometry" />
        </mxCell>
        <mxCell id="i3OPoqDQxN0986Pk2l1O-72" value="&lt;b&gt;交车管理&lt;/b&gt;" style="rounded=1;whiteSpace=wrap;html=1;fontSize=12;fontColor=#2E2E2E;fillColor=#FFFFFF;dashed=1;align=left;verticalAlign=top;" parent="1" vertex="1">
          <mxGeometry x="879" y="483" width="130" height="94" as="geometry" />
        </mxCell>
        <mxCell id="i3OPoqDQxN0986Pk2l1O-74" value="维修类型" style="rounded=0;whiteSpace=wrap;html=1;fontSize=12;fontColor=#2E2E2E;fillColor=#97D077;" parent="1" vertex="1">
          <mxGeometry x="289" y="678" width="80" height="35" as="geometry" />
        </mxCell>
        <mxCell id="i3OPoqDQxN0986Pk2l1O-75" value="SA常用零件" style="rounded=0;whiteSpace=wrap;html=1;fontSize=12;fontColor=#2E2E2E;fillColor=#97D077;" parent="1" vertex="1">
          <mxGeometry x="905" y="675" width="80" height="35" as="geometry" />
        </mxCell>
        <mxCell id="i3OPoqDQxN0986Pk2l1O-76" value="会计结算单" style="rounded=0;whiteSpace=wrap;html=1;fontSize=12;fontColor=#2E2E2E;fillColor=#97D077;" parent="1" vertex="1">
          <mxGeometry x="904" y="514" width="80" height="35" as="geometry" />
        </mxCell>
        <mxCell id="i3OPoqDQxN0986Pk2l1O-77" value="&lt;font style=&quot;font-size: 13px&quot;&gt;&lt;b&gt;&amp;nbsp; 服务接待原子服务&lt;/b&gt;&lt;/font&gt;" style="rounded=1;whiteSpace=wrap;html=1;fontSize=12;fontColor=#2E2E2E;fillColor=#FFFFFF;dashed=1;align=left;verticalAlign=top;" parent="1" vertex="1">
          <mxGeometry x="270" y="481" width="216" height="141" as="geometry" />
        </mxCell>
        <mxCell id="i3OPoqDQxN0986Pk2l1O-78" value="预约单" style="rounded=0;whiteSpace=wrap;html=1;fontSize=12;fontColor=#2E2E2E;fillColor=#97D077;" parent="1" vertex="1">
          <mxGeometry x="545.5" y="509" width="80" height="35" as="geometry" />
        </mxCell>
        <mxCell id="i3OPoqDQxN0986Pk2l1O-80" value="工单" style="rounded=0;whiteSpace=wrap;html=1;fontSize=12;fontColor=#2E2E2E;fillColor=#97D077;" parent="1" vertex="1">
          <mxGeometry x="289.00000000000006" y="513" width="80" height="35" as="geometry" />
        </mxCell>
        <mxCell id="i3OPoqDQxN0986Pk2l1O-24" value="服务接待&lt;br style=&quot;font-size: 12px&quot;&gt;&lt;div style=&quot;font-size: 12px&quot;&gt;&lt;font style=&quot;font-size: 12px&quot;&gt;流程编排&lt;br style=&quot;font-size: 12px&quot;&gt;&lt;/font&gt;&lt;/div&gt;" style="rounded=0;whiteSpace=wrap;html=1;fontSize=12;fontColor=#2E2E2E;fillColor=#FFCC99;" parent="1" vertex="1">
          <mxGeometry x="286.0975609756098" y="280.65625" width="110.67073170731707" height="50.78125" as="geometry" />
        </mxCell>
        <mxCell id="i3OPoqDQxN0986Pk2l1O-25" value="预约管理&lt;br&gt;&lt;div style=&quot;font-size: 12px&quot;&gt;&lt;font style=&quot;font-size: 12px&quot;&gt;流程编排&lt;/font&gt;&lt;br style=&quot;font-size: 12px&quot;&gt;&lt;/div&gt;" style="rounded=0;whiteSpace=wrap;html=1;fontSize=12;fontColor=#2E2E2E;fillColor=#FFCC99;" parent="1" vertex="1">
          <mxGeometry x="452.5041463414634" y="280.65625" width="110.67073170731707" height="50.78125" as="geometry" />
        </mxCell>
        <mxCell id="i3OPoqDQxN0986Pk2l1O-26" value="&lt;div style=&quot;font-size: 12px&quot;&gt;&lt;font style=&quot;font-size: 12px&quot;&gt;客户信息&lt;/font&gt;&lt;/div&gt;&lt;div style=&quot;font-size: 12px&quot;&gt;&lt;font style=&quot;font-size: 12px&quot;&gt;流程编排&lt;/font&gt;&lt;/div&gt;" style="rounded=0;whiteSpace=wrap;html=1;fontSize=12;fontColor=#2E2E2E;fillColor=#FFCC99;" parent="1" vertex="1">
          <mxGeometry x="623.3307317073172" y="280.21625" width="110.67073170731707" height="50.78125" as="geometry" />
        </mxCell>
        <mxCell id="i3OPoqDQxN0986Pk2l1O-28" value="交车管理&lt;br&gt;&lt;div style=&quot;font-size: 12px&quot;&gt;&lt;font style=&quot;font-size: 12px&quot;&gt;流程编排&lt;/font&gt;&lt;/div&gt;" style="rounded=0;whiteSpace=wrap;html=1;fontSize=12;fontColor=#2E2E2E;fillColor=#FFCC99;" parent="1" vertex="1">
          <mxGeometry x="790.0039024390244" y="280.21625" width="110.67073170731707" height="50.78125" as="geometry" />
        </mxCell>
        <mxCell id="i3OPoqDQxN0986Pk2l1O-98" value="" style="shape=corner;whiteSpace=wrap;html=1;fontSize=12;fontColor=#2E2E2E;fillColor=#B3B3B3;dx=13;dy=14;" parent="1" vertex="1">
          <mxGeometry x="4" y="5" width="120" height="95" as="geometry" />
        </mxCell>
        <mxCell id="i3OPoqDQxN0986Pk2l1O-99" value="" style="shape=corner;whiteSpace=wrap;html=1;fontSize=12;fontColor=#2E2E2E;fillColor=#B3B3B3;dx=13;dy=14;rotation=-180;" parent="1" vertex="1">
          <mxGeometry x="1037" y="757" width="120" height="95" as="geometry" />
        </mxCell>
        <mxCell id="-a9_Qz3bq9H2a8sFKD40-7" value="&lt;div&gt;维修代码&lt;/div&gt;&lt;div&gt;对照表&lt;/div&gt;" style="rounded=0;whiteSpace=wrap;html=1;fontSize=12;fontColor=#2E2E2E;fillColor=#97D077;" parent="1" vertex="1">
          <mxGeometry x="800" y="675" width="80" height="35" as="geometry" />
        </mxCell>
        <mxCell id="-a9_Qz3bq9H2a8sFKD40-8" value="SA常用项目" style="rounded=0;whiteSpace=wrap;html=1;fontSize=12;fontColor=#2E2E2E;fillColor=#97D077;" parent="1" vertex="1">
          <mxGeometry x="688" y="675" width="80" height="35" as="geometry" />
        </mxCell>
        <mxCell id="-a9_Qz3bq9H2a8sFKD40-14" value="付款种类" style="rounded=0;whiteSpace=wrap;html=1;fontSize=12;fontColor=#2E2E2E;fillColor=#97D077;" parent="1" vertex="1">
          <mxGeometry x="492" y="726" width="80" height="35" as="geometry" />
        </mxCell>
        <mxCell id="-a9_Qz3bq9H2a8sFKD40-15" value="&lt;div&gt;免保维修&lt;/div&gt;&lt;div&gt;代码&lt;/div&gt;" style="rounded=0;whiteSpace=wrap;html=1;fontSize=12;fontColor=#2E2E2E;fillColor=#97D077;" parent="1" vertex="1">
          <mxGeometry x="492" y="678" width="80" height="35" as="geometry" />
        </mxCell>
        <mxCell id="-a9_Qz3bq9H2a8sFKD40-16" value="e客服分组" style="rounded=0;whiteSpace=wrap;html=1;fontSize=12;fontColor=#2E2E2E;fillColor=#97D077;" parent="1" vertex="1">
          <mxGeometry x="688" y="732" width="80" height="35" as="geometry" />
        </mxCell>
        <mxCell id="-a9_Qz3bq9H2a8sFKD40-17" value="&lt;font style=&quot;font-size: 13px&quot;&gt;&lt;b&gt;&amp;nbsp;客户信息原子服务&lt;/b&gt;&lt;/font&gt;" style="rounded=1;whiteSpace=wrap;html=1;fontSize=12;fontColor=#2E2E2E;fillColor=#FFFFFF;dashed=1;align=left;verticalAlign=top;" parent="1" vertex="1">
          <mxGeometry x="698.16" y="481" width="129.84" height="122" as="geometry" />
        </mxCell>
        <mxCell id="-a9_Qz3bq9H2a8sFKD40-18" value="施工单" style="rounded=0;whiteSpace=wrap;html=1;fontSize=12;fontColor=#2E2E2E;fillColor=#97D077;" parent="1" vertex="1">
          <mxGeometry x="389.00000000000006" y="512" width="80" height="35" as="geometry" />
        </mxCell>
        <mxCell id="s9HHMkbHFHmXN_6QrmUK-11" style="edgeStyle=orthogonalEdgeStyle;rounded=0;orthogonalLoop=1;jettySize=auto;html=1;exitX=0.5;exitY=1;exitDx=0;exitDy=0;entryX=0.5;entryY=0;entryDx=0;entryDy=0;" parent="1" source="s9HHMkbHFHmXN_6QrmUK-8" target="s9HHMkbHFHmXN_6QrmUK-9" edge="1">
          <mxGeometry relative="1" as="geometry" />
        </mxCell>
        <mxCell id="s9HHMkbHFHmXN_6QrmUK-8" value="&lt;font style=&quot;font-size: 12px&quot;&gt;DMS-APAD&lt;/font&gt;" style="rounded=0;whiteSpace=wrap;html=1;fontSize=12;fontColor=#FFFFFF;fillColor=#FF9999;" parent="1" vertex="1">
          <mxGeometry x="545" y="45" width="110" height="50" as="geometry" />
        </mxCell>
        <mxCell id="s9HHMkbHFHmXN_6QrmUK-12" style="edgeStyle=orthogonalEdgeStyle;rounded=0;orthogonalLoop=1;jettySize=auto;html=1;exitX=0.5;exitY=1;exitDx=0;exitDy=0;" parent="1" source="s9HHMkbHFHmXN_6QrmUK-9" target="i3OPoqDQxN0986Pk2l1O-22" edge="1">
          <mxGeometry relative="1" as="geometry" />
        </mxCell>
        <mxCell id="s9HHMkbHFHmXN_6QrmUK-9" value="&lt;div style=&quot;font-size: 12px&quot;&gt;&lt;font style=&quot;font-size: 12px&quot;&gt;DMS-APAD&lt;/font&gt;&lt;/div&gt;&lt;div style=&quot;font-size: 12px&quot;&gt;&lt;font style=&quot;font-size: 12px&quot;&gt;BFF服务&lt;/font&gt;&lt;/div&gt;" style="rounded=0;whiteSpace=wrap;html=1;fontSize=12;fontColor=#FFFFFF;fillColor=#66B2FF;" parent="1" vertex="1">
          <mxGeometry x="545" y="148" width="110" height="50" as="geometry" />
        </mxCell>
        <mxCell id="s9HHMkbHFHmXN_6QrmUK-16" value="维修套餐" style="rounded=0;whiteSpace=wrap;html=1;fontSize=12;fontColor=#2E2E2E;fillColor=#97D077;" parent="1" vertex="1">
          <mxGeometry x="688" y="779.5" width="80" height="35" as="geometry" />
        </mxCell>
        <mxCell id="s9HHMkbHFHmXN_6QrmUK-21" value="客户信息" style="rounded=0;whiteSpace=wrap;html=1;fontSize=12;fontColor=#2E2E2E;fillColor=#97D077;" parent="1" vertex="1">
          <mxGeometry x="721.16" y="505" width="80" height="35" as="geometry" />
        </mxCell>
        <mxCell id="9plaYg8qMZ9sbKhotWY8-1" value="&lt;div&gt;维修代码&lt;/div&gt;&lt;div&gt;对照表&lt;/div&gt;" style="rounded=0;whiteSpace=wrap;html=1;fontSize=12;fontColor=#2E2E2E;fillColor=#97D077;" parent="1" vertex="1">
          <mxGeometry x="389.83" y="678" width="80" height="35" as="geometry" />
        </mxCell>
        <mxCell id="9plaYg8qMZ9sbKhotWY8-4" value="转账部门" style="rounded=0;whiteSpace=wrap;html=1;fontSize=12;fontColor=#2E2E2E;fillColor=#97D077;" parent="1" vertex="1">
          <mxGeometry x="906" y="732" width="80" height="35" as="geometry" />
        </mxCell>
        <mxCell id="jHMa6xc9n_6trjZNkkyf-4" value="车辆用途" style="rounded=0;whiteSpace=wrap;html=1;fontSize=12;fontColor=#2E2E2E;fillColor=#97D077;" vertex="1" parent="1">
          <mxGeometry x="389.83000000000004" y="726" width="80" height="35" as="geometry" />
        </mxCell>
        <mxCell id="jHMa6xc9n_6trjZNkkyf-6" value="丰田付款方" style="rounded=0;whiteSpace=wrap;html=1;fontSize=12;fontColor=#2E2E2E;fillColor=#97D077;" vertex="1" parent="1">
          <mxGeometry x="289.00000000000006" y="779.5" width="80" height="35" as="geometry" />
        </mxCell>
        <mxCell id="jHMa6xc9n_6trjZNkkyf-7" value="零件出库单" style="rounded=0;whiteSpace=wrap;html=1;fontSize=12;fontColor=#2E2E2E;fillColor=#97D077;" vertex="1" parent="1">
          <mxGeometry x="289.00000000000006" y="569" width="80" height="35" as="geometry" />
        </mxCell>
        <mxCell id="jHMa6xc9n_6trjZNkkyf-8" value="估算结算单" style="rounded=0;whiteSpace=wrap;html=1;fontSize=12;fontColor=#2E2E2E;fillColor=#97D077;" vertex="1" parent="1">
          <mxGeometry x="389.00000000000006" y="568" width="80" height="35" as="geometry" />
        </mxCell>
        <mxCell id="jHMa6xc9n_6trjZNkkyf-10" value="车辆信息" style="rounded=0;whiteSpace=wrap;html=1;fontSize=12;fontColor=#2E2E2E;fillColor=#97D077;" vertex="1" parent="1">
          <mxGeometry x="721" y="551" width="80" height="35" as="geometry" />
        </mxCell>
        <mxCell id="jHMa6xc9n_6trjZNkkyf-17" value="厂端基础参数&lt;br style=&quot;font-size: 12px&quot;&gt;&lt;div style=&quot;font-size: 12px&quot;&gt;&lt;font style=&quot;font-size: 12px&quot;&gt;流程编排&lt;br style=&quot;font-size: 12px&quot;&gt;&lt;/font&gt;&lt;/div&gt;" style="rounded=0;whiteSpace=wrap;html=1;fontSize=12;fontColor=#2E2E2E;fillColor=#FFCC99;" vertex="1" parent="1">
          <mxGeometry x="377.6675609756098" y="353.99625000000003" width="110.67073170731707" height="50.78125" as="geometry" />
        </mxCell>
        <mxCell id="jHMa6xc9n_6trjZNkkyf-18" value="店端基础参数&lt;br&gt;&lt;div style=&quot;font-size: 12px&quot;&gt;&lt;font style=&quot;font-size: 12px&quot;&gt;流程编排&lt;/font&gt;&lt;br style=&quot;font-size: 12px&quot;&gt;&lt;/div&gt;" style="rounded=0;whiteSpace=wrap;html=1;fontSize=12;fontColor=#2E2E2E;fillColor=#FFCC99;" vertex="1" parent="1">
          <mxGeometry x="707.7441463414635" y="353.99625000000003" width="110.67073170731707" height="50.78125" as="geometry" />
        </mxCell>
        <mxCell id="jHMa6xc9n_6trjZNkkyf-21" value="" style="curved=1;endArrow=classic;html=1;rounded=0;exitX=0.5;exitY=1;exitDx=0;exitDy=0;" edge="1" parent="1" source="i3OPoqDQxN0986Pk2l1O-24" target="i3OPoqDQxN0986Pk2l1O-77">
          <mxGeometry width="50" height="50" relative="1" as="geometry">
            <mxPoint x="355" y="369" as="sourcePoint" />
            <mxPoint x="305" y="419" as="targetPoint" />
            <Array as="points">
              <mxPoint x="334" y="395" />
              <mxPoint x="378" y="428" />
            </Array>
          </mxGeometry>
        </mxCell>
        <mxCell id="jHMa6xc9n_6trjZNkkyf-22" value="" style="curved=1;endArrow=classic;html=1;rounded=0;exitX=0.5;exitY=1;exitDx=0;exitDy=0;entryX=0.5;entryY=0;entryDx=0;entryDy=0;" edge="1" parent="1" target="jHMa6xc9n_6trjZNkkyf-11">
          <mxGeometry width="50" height="50" relative="1" as="geometry">
            <mxPoint x="510.4329268292681" y="330.9975" as="sourcePoint" />
            <mxPoint x="534.7622641509433" y="480.56" as="targetPoint" />
            <Array as="points">
              <mxPoint x="574" y="384" />
            </Array>
          </mxGeometry>
        </mxCell>
        <mxCell id="jHMa6xc9n_6trjZNkkyf-23" value="" style="curved=1;endArrow=classic;html=1;rounded=0;exitX=0.5;exitY=1;exitDx=0;exitDy=0;entryX=0.5;entryY=0;entryDx=0;entryDy=0;" edge="1" parent="1">
          <mxGeometry width="50" height="50" relative="1" as="geometry">
            <mxPoint x="676.0029268292681" y="330.99749999999995" as="sourcePoint" />
            <mxPoint x="754.5699999999999" y="484" as="targetPoint" />
            <Array as="points">
              <mxPoint x="671" y="395" />
              <mxPoint x="768" y="458" />
            </Array>
          </mxGeometry>
        </mxCell>
        <mxCell id="jHMa6xc9n_6trjZNkkyf-24" value="" style="curved=1;endArrow=classic;html=1;rounded=0;exitX=0.5;exitY=1;exitDx=0;exitDy=0;entryX=0.5;entryY=0;entryDx=0;entryDy=0;" edge="1" parent="1" target="i3OPoqDQxN0986Pk2l1O-72">
          <mxGeometry width="50" height="50" relative="1" as="geometry">
            <mxPoint x="846.0029268292683" y="330.99749999999995" as="sourcePoint" />
            <mxPoint x="924.5699999999997" y="484" as="targetPoint" />
            <Array as="points">
              <mxPoint x="841" y="395" />
              <mxPoint x="938" y="458" />
            </Array>
          </mxGeometry>
        </mxCell>
        <mxCell id="jHMa6xc9n_6trjZNkkyf-25" value="" style="curved=1;endArrow=classic;html=1;rounded=0;exitX=0.5;exitY=1;exitDx=0;exitDy=0;entryX=0.75;entryY=0;entryDx=0;entryDy=0;" edge="1" parent="1" target="jHMa6xc9n_6trjZNkkyf-2">
          <mxGeometry width="50" height="50" relative="1" as="geometry">
            <mxPoint x="432.4329268292681" y="404.77750000000003" as="sourcePoint" />
            <mxPoint x="468.9999999999998" y="554.34" as="targetPoint" />
            <Array as="points">
              <mxPoint x="504" y="474" />
              <mxPoint x="520" y="563" />
            </Array>
          </mxGeometry>
        </mxCell>
        <mxCell id="jHMa6xc9n_6trjZNkkyf-26" value="" style="curved=1;endArrow=classic;html=1;rounded=0;exitX=0.5;exitY=1;exitDx=0;exitDy=0;" edge="1" parent="1">
          <mxGeometry width="50" height="50" relative="1" as="geometry">
            <mxPoint x="765.0029268292681" y="404.38750000000016" as="sourcePoint" />
            <mxPoint x="837" y="641" as="targetPoint" />
            <Array as="points">
              <mxPoint x="837" y="433" />
              <mxPoint x="868" y="563" />
            </Array>
          </mxGeometry>
        </mxCell>
      </root>
    </mxGraphModel>
  </diagram>
</mxfile>
